<mxfile host="app.diagrams.net" modified="2023-04-04T10:55:19.399Z" agent="Mozilla/5.0 (Windows NT 10.0; Win64; x64; rv:109.0) Gecko/20100101 Firefox/111.0" etag="EzwXNC-iyxCglgnBBhPv" version="21.1.2" type="github">
  <diagram id="C5RBs43oDa-KdzZeNtuy" name="Page-1">
    <mxGraphModel dx="1050" dy="1690" grid="1" gridSize="10" guides="1" tooltips="1" connect="1" arrows="1" fold="1" page="1" pageScale="1" pageWidth="827" pageHeight="1169" math="0" shadow="0">
      <root>
        <mxCell id="WIyWlLk6GJQsqaUBKTNV-0" />
        <mxCell id="WIyWlLk6GJQsqaUBKTNV-1" parent="WIyWlLk6GJQsqaUBKTNV-0" />
        <mxCell id="zkfFHV4jXpPFQw0GAbJ--0" value="Field" style="swimlane;fontStyle=0;align=center;verticalAlign=top;childLayout=stackLayout;horizontal=1;startSize=30;horizontalStack=0;resizeParent=1;resizeLast=0;collapsible=1;marginBottom=0;rounded=0;shadow=0;strokeWidth=1;" parent="WIyWlLk6GJQsqaUBKTNV-1" vertex="1">
          <mxGeometry x="364" y="-1050" width="100" height="168" as="geometry">
            <mxRectangle x="170" y="-260" width="160" height="26" as="alternateBounds" />
          </mxGeometry>
        </mxCell>
        <mxCell id="zkfFHV4jXpPFQw0GAbJ--1" value="+title" style="text;align=left;verticalAlign=top;spacingLeft=4;spacingRight=4;overflow=hidden;rotatable=0;points=[[0,0.5],[1,0.5]];portConstraint=eastwest;" parent="zkfFHV4jXpPFQw0GAbJ--0" vertex="1">
          <mxGeometry y="30" width="100" height="26" as="geometry" />
        </mxCell>
        <mxCell id="zkfFHV4jXpPFQw0GAbJ--2" value="+value" style="text;align=left;verticalAlign=top;spacingLeft=4;spacingRight=4;overflow=hidden;rotatable=0;points=[[0,0.5],[1,0.5]];portConstraint=eastwest;rounded=0;shadow=0;html=0;" parent="zkfFHV4jXpPFQw0GAbJ--0" vertex="1">
          <mxGeometry y="56" width="100" height="26" as="geometry" />
        </mxCell>
        <mxCell id="TrTOvMaPo9HPveFWwiuY-1" value="+order" style="text;align=left;verticalAlign=top;spacingLeft=4;spacingRight=4;overflow=hidden;rotatable=0;points=[[0,0.5],[1,0.5]];portConstraint=eastwest;rounded=0;shadow=0;html=0;" vertex="1" parent="zkfFHV4jXpPFQw0GAbJ--0">
          <mxGeometry y="82" width="100" height="26" as="geometry" />
        </mxCell>
        <mxCell id="zkfFHV4jXpPFQw0GAbJ--3" value="+is_unique" style="text;align=left;verticalAlign=top;spacingLeft=4;spacingRight=4;overflow=hidden;rotatable=0;points=[[0,0.5],[1,0.5]];portConstraint=eastwest;rounded=0;shadow=0;html=0;" parent="zkfFHV4jXpPFQw0GAbJ--0" vertex="1">
          <mxGeometry y="108" width="100" height="26" as="geometry" />
        </mxCell>
        <mxCell id="zkfFHV4jXpPFQw0GAbJ--4" value="" style="line;html=1;strokeWidth=1;align=left;verticalAlign=middle;spacingTop=-1;spacingLeft=3;spacingRight=3;rotatable=0;labelPosition=right;points=[];portConstraint=eastwest;" parent="zkfFHV4jXpPFQw0GAbJ--0" vertex="1">
          <mxGeometry y="134" width="100" height="8" as="geometry" />
        </mxCell>
        <mxCell id="TrTOvMaPo9HPveFWwiuY-29" style="edgeStyle=orthogonalEdgeStyle;rounded=0;orthogonalLoop=1;jettySize=auto;html=1;exitX=0.5;exitY=0;exitDx=0;exitDy=0;entryX=0.5;entryY=1;entryDx=0;entryDy=0;" edge="1" parent="WIyWlLk6GJQsqaUBKTNV-1" source="TrTOvMaPo9HPveFWwiuY-2" target="zkfFHV4jXpPFQw0GAbJ--0">
          <mxGeometry relative="1" as="geometry" />
        </mxCell>
        <mxCell id="TrTOvMaPo9HPveFWwiuY-2" value="Phone" style="swimlane;fontStyle=0;align=center;verticalAlign=top;childLayout=stackLayout;horizontal=1;startSize=26;horizontalStack=0;resizeParent=1;resizeLast=0;collapsible=1;marginBottom=0;rounded=0;shadow=0;strokeWidth=1;" vertex="1" parent="WIyWlLk6GJQsqaUBKTNV-1">
          <mxGeometry x="54" y="-760" width="120" height="160" as="geometry">
            <mxRectangle x="230" y="140" width="160" height="26" as="alternateBounds" />
          </mxGeometry>
        </mxCell>
        <mxCell id="TrTOvMaPo9HPveFWwiuY-3" value="+title = &quot;Phone&quot;" style="text;align=left;verticalAlign=top;spacingLeft=4;spacingRight=4;overflow=hidden;rotatable=0;points=[[0,0.5],[1,0.5]];portConstraint=eastwest;" vertex="1" parent="TrTOvMaPo9HPveFWwiuY-2">
          <mxGeometry y="26" width="120" height="22" as="geometry" />
        </mxCell>
        <mxCell id="TrTOvMaPo9HPveFWwiuY-4" value="+value    " style="text;align=left;verticalAlign=top;spacingLeft=4;spacingRight=4;overflow=hidden;rotatable=0;points=[[0,0.5],[1,0.5]];portConstraint=eastwest;rounded=0;shadow=0;html=0;" vertex="1" parent="TrTOvMaPo9HPveFWwiuY-2">
          <mxGeometry y="48" width="120" height="22" as="geometry" />
        </mxCell>
        <mxCell id="TrTOvMaPo9HPveFWwiuY-5" value="+order = 30" style="text;align=left;verticalAlign=top;spacingLeft=4;spacingRight=4;overflow=hidden;rotatable=0;points=[[0,0.5],[1,0.5]];portConstraint=eastwest;rounded=0;shadow=0;html=0;" vertex="1" parent="TrTOvMaPo9HPveFWwiuY-2">
          <mxGeometry y="70" width="120" height="26" as="geometry" />
        </mxCell>
        <mxCell id="TrTOvMaPo9HPveFWwiuY-8" value="+is_unique = False" style="text;align=left;verticalAlign=top;spacingLeft=4;spacingRight=4;overflow=hidden;rotatable=0;points=[[0,0.5],[1,0.5]];portConstraint=eastwest;rounded=0;shadow=0;html=0;" vertex="1" parent="TrTOvMaPo9HPveFWwiuY-2">
          <mxGeometry y="96" width="120" height="24" as="geometry" />
        </mxCell>
        <mxCell id="TrTOvMaPo9HPveFWwiuY-6" value="" style="line;html=1;strokeWidth=1;align=left;verticalAlign=middle;spacingTop=-1;spacingLeft=3;spacingRight=3;rotatable=0;labelPosition=right;points=[];portConstraint=eastwest;" vertex="1" parent="TrTOvMaPo9HPveFWwiuY-2">
          <mxGeometry y="120" width="120" height="8" as="geometry" />
        </mxCell>
        <mxCell id="TrTOvMaPo9HPveFWwiuY-31" style="edgeStyle=orthogonalEdgeStyle;rounded=0;orthogonalLoop=1;jettySize=auto;html=1;entryX=0.5;entryY=1;entryDx=0;entryDy=0;" edge="1" parent="WIyWlLk6GJQsqaUBKTNV-1" source="TrTOvMaPo9HPveFWwiuY-9" target="zkfFHV4jXpPFQw0GAbJ--0">
          <mxGeometry relative="1" as="geometry" />
        </mxCell>
        <mxCell id="TrTOvMaPo9HPveFWwiuY-9" value="Birthday" style="swimlane;fontStyle=0;align=center;verticalAlign=top;childLayout=stackLayout;horizontal=1;startSize=26;horizontalStack=0;resizeParent=1;resizeLast=0;collapsible=1;marginBottom=0;rounded=0;shadow=0;strokeWidth=1;" vertex="1" parent="WIyWlLk6GJQsqaUBKTNV-1">
          <mxGeometry x="454" y="-760" width="120" height="182" as="geometry">
            <mxRectangle x="230" y="140" width="160" height="26" as="alternateBounds" />
          </mxGeometry>
        </mxCell>
        <mxCell id="TrTOvMaPo9HPveFWwiuY-10" value="+title = &quot;Birthday&quot;" style="text;align=left;verticalAlign=top;spacingLeft=4;spacingRight=4;overflow=hidden;rotatable=0;points=[[0,0.5],[1,0.5]];portConstraint=eastwest;" vertex="1" parent="TrTOvMaPo9HPveFWwiuY-9">
          <mxGeometry y="26" width="120" height="22" as="geometry" />
        </mxCell>
        <mxCell id="TrTOvMaPo9HPveFWwiuY-11" value="+value    " style="text;align=left;verticalAlign=top;spacingLeft=4;spacingRight=4;overflow=hidden;rotatable=0;points=[[0,0.5],[1,0.5]];portConstraint=eastwest;rounded=0;shadow=0;html=0;" vertex="1" parent="TrTOvMaPo9HPveFWwiuY-9">
          <mxGeometry y="48" width="120" height="22" as="geometry" />
        </mxCell>
        <mxCell id="TrTOvMaPo9HPveFWwiuY-12" value="+order = 80" style="text;align=left;verticalAlign=top;spacingLeft=4;spacingRight=4;overflow=hidden;rotatable=0;points=[[0,0.5],[1,0.5]];portConstraint=eastwest;rounded=0;shadow=0;html=0;" vertex="1" parent="TrTOvMaPo9HPveFWwiuY-9">
          <mxGeometry y="70" width="120" height="26" as="geometry" />
        </mxCell>
        <mxCell id="TrTOvMaPo9HPveFWwiuY-13" value="+is_unique = True" style="text;align=left;verticalAlign=top;spacingLeft=4;spacingRight=4;overflow=hidden;rotatable=0;points=[[0,0.5],[1,0.5]];portConstraint=eastwest;rounded=0;shadow=0;html=0;" vertex="1" parent="TrTOvMaPo9HPveFWwiuY-9">
          <mxGeometry y="96" width="120" height="26" as="geometry" />
        </mxCell>
        <mxCell id="TrTOvMaPo9HPveFWwiuY-16" value="+days_to_birthday()" style="text;align=left;verticalAlign=top;spacingLeft=4;spacingRight=4;overflow=hidden;rotatable=0;points=[[0,0.5],[1,0.5]];portConstraint=eastwest;rounded=0;shadow=0;html=0;" vertex="1" parent="TrTOvMaPo9HPveFWwiuY-9">
          <mxGeometry y="122" width="120" height="26" as="geometry" />
        </mxCell>
        <mxCell id="TrTOvMaPo9HPveFWwiuY-14" value="" style="line;html=1;strokeWidth=1;align=left;verticalAlign=middle;spacingTop=-1;spacingLeft=3;spacingRight=3;rotatable=0;labelPosition=right;points=[];portConstraint=eastwest;" vertex="1" parent="TrTOvMaPo9HPveFWwiuY-9">
          <mxGeometry y="148" width="120" height="8" as="geometry" />
        </mxCell>
        <mxCell id="TrTOvMaPo9HPveFWwiuY-30" style="edgeStyle=orthogonalEdgeStyle;rounded=0;orthogonalLoop=1;jettySize=auto;html=1;exitX=0.5;exitY=0;exitDx=0;exitDy=0;entryX=0.5;entryY=1;entryDx=0;entryDy=0;" edge="1" parent="WIyWlLk6GJQsqaUBKTNV-1" source="TrTOvMaPo9HPveFWwiuY-17" target="zkfFHV4jXpPFQw0GAbJ--0">
          <mxGeometry relative="1" as="geometry">
            <mxPoint x="420" y="-880" as="targetPoint" />
          </mxGeometry>
        </mxCell>
        <mxCell id="TrTOvMaPo9HPveFWwiuY-17" value="Address" style="swimlane;fontStyle=0;align=center;verticalAlign=top;childLayout=stackLayout;horizontal=1;startSize=26;horizontalStack=0;resizeParent=1;resizeLast=0;collapsible=1;marginBottom=0;rounded=0;shadow=0;strokeWidth=1;" vertex="1" parent="WIyWlLk6GJQsqaUBKTNV-1">
          <mxGeometry x="254" y="-760" width="120" height="160" as="geometry">
            <mxRectangle x="230" y="140" width="160" height="26" as="alternateBounds" />
          </mxGeometry>
        </mxCell>
        <mxCell id="TrTOvMaPo9HPveFWwiuY-18" value="+title = &quot;Address&quot;" style="text;align=left;verticalAlign=top;spacingLeft=4;spacingRight=4;overflow=hidden;rotatable=0;points=[[0,0.5],[1,0.5]];portConstraint=eastwest;" vertex="1" parent="TrTOvMaPo9HPveFWwiuY-17">
          <mxGeometry y="26" width="120" height="22" as="geometry" />
        </mxCell>
        <mxCell id="TrTOvMaPo9HPveFWwiuY-19" value="+value    " style="text;align=left;verticalAlign=top;spacingLeft=4;spacingRight=4;overflow=hidden;rotatable=0;points=[[0,0.5],[1,0.5]];portConstraint=eastwest;rounded=0;shadow=0;html=0;" vertex="1" parent="TrTOvMaPo9HPveFWwiuY-17">
          <mxGeometry y="48" width="120" height="22" as="geometry" />
        </mxCell>
        <mxCell id="TrTOvMaPo9HPveFWwiuY-20" value="+order = 50" style="text;align=left;verticalAlign=top;spacingLeft=4;spacingRight=4;overflow=hidden;rotatable=0;points=[[0,0.5],[1,0.5]];portConstraint=eastwest;rounded=0;shadow=0;html=0;" vertex="1" parent="TrTOvMaPo9HPveFWwiuY-17">
          <mxGeometry y="70" width="120" height="26" as="geometry" />
        </mxCell>
        <mxCell id="TrTOvMaPo9HPveFWwiuY-21" value="+is_unique = False" style="text;align=left;verticalAlign=top;spacingLeft=4;spacingRight=4;overflow=hidden;rotatable=0;points=[[0,0.5],[1,0.5]];portConstraint=eastwest;rounded=0;shadow=0;html=0;" vertex="1" parent="TrTOvMaPo9HPveFWwiuY-17">
          <mxGeometry y="96" width="120" height="26" as="geometry" />
        </mxCell>
        <mxCell id="TrTOvMaPo9HPveFWwiuY-22" value="" style="line;html=1;strokeWidth=1;align=left;verticalAlign=middle;spacingTop=-1;spacingLeft=3;spacingRight=3;rotatable=0;labelPosition=right;points=[];portConstraint=eastwest;" vertex="1" parent="TrTOvMaPo9HPveFWwiuY-17">
          <mxGeometry y="122" width="120" height="8" as="geometry" />
        </mxCell>
        <mxCell id="TrTOvMaPo9HPveFWwiuY-32" style="edgeStyle=orthogonalEdgeStyle;rounded=0;orthogonalLoop=1;jettySize=auto;html=1;exitX=0.5;exitY=0;exitDx=0;exitDy=0;entryX=0.5;entryY=1;entryDx=0;entryDy=0;" edge="1" parent="WIyWlLk6GJQsqaUBKTNV-1" source="TrTOvMaPo9HPveFWwiuY-23" target="zkfFHV4jXpPFQw0GAbJ--0">
          <mxGeometry relative="1" as="geometry" />
        </mxCell>
        <mxCell id="TrTOvMaPo9HPveFWwiuY-23" value="Comment" style="swimlane;fontStyle=0;align=center;verticalAlign=top;childLayout=stackLayout;horizontal=1;startSize=26;horizontalStack=0;resizeParent=1;resizeLast=0;collapsible=1;marginBottom=0;rounded=0;shadow=0;strokeWidth=1;" vertex="1" parent="WIyWlLk6GJQsqaUBKTNV-1">
          <mxGeometry x="654" y="-760" width="120" height="160" as="geometry">
            <mxRectangle x="230" y="140" width="160" height="26" as="alternateBounds" />
          </mxGeometry>
        </mxCell>
        <mxCell id="TrTOvMaPo9HPveFWwiuY-24" value="+title = &quot;Comment&quot;" style="text;align=left;verticalAlign=top;spacingLeft=4;spacingRight=4;overflow=hidden;rotatable=0;points=[[0,0.5],[1,0.5]];portConstraint=eastwest;" vertex="1" parent="TrTOvMaPo9HPveFWwiuY-23">
          <mxGeometry y="26" width="120" height="22" as="geometry" />
        </mxCell>
        <mxCell id="TrTOvMaPo9HPveFWwiuY-25" value="+value    " style="text;align=left;verticalAlign=top;spacingLeft=4;spacingRight=4;overflow=hidden;rotatable=0;points=[[0,0.5],[1,0.5]];portConstraint=eastwest;rounded=0;shadow=0;html=0;" vertex="1" parent="TrTOvMaPo9HPveFWwiuY-23">
          <mxGeometry y="48" width="120" height="22" as="geometry" />
        </mxCell>
        <mxCell id="TrTOvMaPo9HPveFWwiuY-26" value="+order = 95" style="text;align=left;verticalAlign=top;spacingLeft=4;spacingRight=4;overflow=hidden;rotatable=0;points=[[0,0.5],[1,0.5]];portConstraint=eastwest;rounded=0;shadow=0;html=0;" vertex="1" parent="TrTOvMaPo9HPveFWwiuY-23">
          <mxGeometry y="70" width="120" height="26" as="geometry" />
        </mxCell>
        <mxCell id="TrTOvMaPo9HPveFWwiuY-27" value="+is_unique = False" style="text;align=left;verticalAlign=top;spacingLeft=4;spacingRight=4;overflow=hidden;rotatable=0;points=[[0,0.5],[1,0.5]];portConstraint=eastwest;rounded=0;shadow=0;html=0;" vertex="1" parent="TrTOvMaPo9HPveFWwiuY-23">
          <mxGeometry y="96" width="120" height="26" as="geometry" />
        </mxCell>
        <mxCell id="TrTOvMaPo9HPveFWwiuY-28" value="" style="line;html=1;strokeWidth=1;align=left;verticalAlign=middle;spacingTop=-1;spacingLeft=3;spacingRight=3;rotatable=0;labelPosition=right;points=[];portConstraint=eastwest;" vertex="1" parent="TrTOvMaPo9HPveFWwiuY-23">
          <mxGeometry y="122" width="120" height="8" as="geometry" />
        </mxCell>
        <mxCell id="TrTOvMaPo9HPveFWwiuY-43" style="edgeStyle=orthogonalEdgeStyle;rounded=0;orthogonalLoop=1;jettySize=auto;html=1;exitX=0.5;exitY=0;exitDx=0;exitDy=0;entryX=0.5;entryY=1;entryDx=0;entryDy=0;startArrow=diamond;startFill=0;" edge="1" parent="WIyWlLk6GJQsqaUBKTNV-1" source="TrTOvMaPo9HPveFWwiuY-33" target="TrTOvMaPo9HPveFWwiuY-2">
          <mxGeometry relative="1" as="geometry" />
        </mxCell>
        <mxCell id="TrTOvMaPo9HPveFWwiuY-44" style="edgeStyle=orthogonalEdgeStyle;rounded=0;orthogonalLoop=1;jettySize=auto;html=1;exitX=0.5;exitY=0;exitDx=0;exitDy=0;entryX=0.5;entryY=1;entryDx=0;entryDy=0;startArrow=diamond;startFill=0;" edge="1" parent="WIyWlLk6GJQsqaUBKTNV-1" source="TrTOvMaPo9HPveFWwiuY-33" target="TrTOvMaPo9HPveFWwiuY-17">
          <mxGeometry relative="1" as="geometry" />
        </mxCell>
        <mxCell id="TrTOvMaPo9HPveFWwiuY-45" style="edgeStyle=orthogonalEdgeStyle;rounded=0;orthogonalLoop=1;jettySize=auto;html=1;exitX=0.5;exitY=0;exitDx=0;exitDy=0;entryX=0.5;entryY=1;entryDx=0;entryDy=0;startArrow=diamond;startFill=0;" edge="1" parent="WIyWlLk6GJQsqaUBKTNV-1" source="TrTOvMaPo9HPveFWwiuY-33" target="TrTOvMaPo9HPveFWwiuY-9">
          <mxGeometry relative="1" as="geometry">
            <Array as="points">
              <mxPoint x="412" y="-515" />
              <mxPoint x="514" y="-515" />
            </Array>
          </mxGeometry>
        </mxCell>
        <mxCell id="TrTOvMaPo9HPveFWwiuY-46" style="edgeStyle=orthogonalEdgeStyle;rounded=0;orthogonalLoop=1;jettySize=auto;html=1;exitX=0.5;exitY=0;exitDx=0;exitDy=0;entryX=0.5;entryY=1;entryDx=0;entryDy=0;startArrow=diamond;startFill=0;" edge="1" parent="WIyWlLk6GJQsqaUBKTNV-1" source="TrTOvMaPo9HPveFWwiuY-33" target="TrTOvMaPo9HPveFWwiuY-23">
          <mxGeometry relative="1" as="geometry" />
        </mxCell>
        <mxCell id="TrTOvMaPo9HPveFWwiuY-33" value="Record" style="swimlane;fontStyle=0;align=center;verticalAlign=top;childLayout=stackLayout;horizontal=1;startSize=26;horizontalStack=0;resizeParent=1;resizeLast=0;collapsible=1;marginBottom=0;rounded=0;shadow=0;strokeWidth=1;" vertex="1" parent="WIyWlLk6GJQsqaUBKTNV-1">
          <mxGeometry x="354" y="-430" width="116" height="190" as="geometry">
            <mxRectangle x="230" y="140" width="160" height="26" as="alternateBounds" />
          </mxGeometry>
        </mxCell>
        <mxCell id="TrTOvMaPo9HPveFWwiuY-35" value="-fields" style="text;align=left;verticalAlign=top;spacingLeft=4;spacingRight=4;overflow=hidden;rotatable=0;points=[[0,0.5],[1,0.5]];portConstraint=eastwest;rounded=0;shadow=0;html=0;" vertex="1" parent="TrTOvMaPo9HPveFWwiuY-33">
          <mxGeometry y="26" width="116" height="22" as="geometry" />
        </mxCell>
        <mxCell id="TrTOvMaPo9HPveFWwiuY-37" value="+add()" style="text;align=left;verticalAlign=top;spacingLeft=4;spacingRight=4;overflow=hidden;rotatable=0;points=[[0,0.5],[1,0.5]];portConstraint=eastwest;rounded=0;shadow=0;html=0;" vertex="1" parent="TrTOvMaPo9HPveFWwiuY-33">
          <mxGeometry y="48" width="116" height="26" as="geometry" />
        </mxCell>
        <mxCell id="TrTOvMaPo9HPveFWwiuY-40" value="+change()" style="text;align=left;verticalAlign=top;spacingLeft=4;spacingRight=4;overflow=hidden;rotatable=0;points=[[0,0.5],[1,0.5]];portConstraint=eastwest;rounded=0;shadow=0;html=0;" vertex="1" parent="TrTOvMaPo9HPveFWwiuY-33">
          <mxGeometry y="74" width="116" height="26" as="geometry" />
        </mxCell>
        <mxCell id="TrTOvMaPo9HPveFWwiuY-41" value="+delete()" style="text;align=left;verticalAlign=top;spacingLeft=4;spacingRight=4;overflow=hidden;rotatable=0;points=[[0,0.5],[1,0.5]];portConstraint=eastwest;rounded=0;shadow=0;html=0;" vertex="1" parent="TrTOvMaPo9HPveFWwiuY-33">
          <mxGeometry y="100" width="116" height="26" as="geometry" />
        </mxCell>
        <mxCell id="TrTOvMaPo9HPveFWwiuY-38" value="+report()" style="text;align=left;verticalAlign=top;spacingLeft=4;spacingRight=4;overflow=hidden;rotatable=0;points=[[0,0.5],[1,0.5]];portConstraint=eastwest;rounded=0;shadow=0;html=0;" vertex="1" parent="TrTOvMaPo9HPveFWwiuY-33">
          <mxGeometry y="126" width="116" height="26" as="geometry" />
        </mxCell>
        <mxCell id="TrTOvMaPo9HPveFWwiuY-39" value="" style="line;html=1;strokeWidth=1;align=left;verticalAlign=middle;spacingTop=-1;spacingLeft=3;spacingRight=3;rotatable=0;labelPosition=right;points=[];portConstraint=eastwest;" vertex="1" parent="TrTOvMaPo9HPveFWwiuY-33">
          <mxGeometry y="152" width="116" height="8" as="geometry" />
        </mxCell>
      </root>
    </mxGraphModel>
  </diagram>
</mxfile>
